<svg xmlns="http://www.w3.org/2000/svg" id="Layer_1" width="221.9" height="221.9" viewBox="0 0 221.9 221.9">
  <style>
    .st0{fill:#D50C2D;stroke:#D50C2D;stroke-width:3.2;stroke-miterlimit:10;} .st1{fill:#FFFFFF;} .st2{fill:#1B2D39;}
  </style>
  <path d="M1.6 1.6h218.7v218.7H1.6z" class="st0"/>
  <path d="M80.5 117.5h6.7v3.3H77V95.9h-5.4v-3.3H77V82.4h3.6v10.2h6.2v3.3h-6.2v21.6z" class="st1"/>
  <path d="M113.2 115c-2.5 4.3-6.6 6.6-11.5 6.6-5.2 0-9.9-2.5-12.4-6.6-1.4-2.3-2.4-5-2.3-8.1 0-4.1 1.2-6 2.4-8.1 2.3-4.1 7.1-6.7 12.2-6.7s9 2.4 11.6 6.7v-6.2h8.2v3.3h-4.7v21.6h4.7v3.3h-8.2V115zm-22.6-8.1c0 6.1 5.1 11.3 11.3 11.3 6.4 0 11.4-5.1 11.4-11.4 0-6.2-5.1-11.2-11.3-11.2-6.3 0-11.4 5.1-11.4 11.3z" class="st1"/>
  <path d="M129.1 98.9c2.3-4.2 6.4-6.8 11.2-6.8 8.2 0 14.8 6.6 14.8 14.8 0 3.1-1.1 6-2.4 8.1-2 3.3-6.8 6.6-12 6.6-4.8 0-9.2-2.4-11.6-6.6v5.9h-8.3v-3.3h4.7V85.8h-4.7v-3.3h8.3v16.4zm22.4 7.9c0-6.1-5-11.1-11.2-11.1-6.4 0-11.4 4.8-11.4 11.3 0 6.4 5.2 11.1 11.5 11.1 6.2 0 11.1-5.2 11.1-11.3z" class="st1"/>
  <path d="M49.6 112.9c-2.4 5.3-7.6 8.7-13.5 8.7-8.1 0-14.8-6.5-14.8-14.6 0-8 6.4-14.9 14.5-14.9 8.4 0 14.9 6.5 14.9 14.9v1.1H24.9c.3 5.8 5.3 10.4 11.1 10.4 4.1 0 7.8-1.9 9.8-5.5h3.8zm-2.2-7.8c-.8-5.8-5.8-9.8-11.6-9.8-5.4 0-10.3 4.5-10.9 9.8h22.5zM67 99.8c-.1-1.5-.8-2.6-1.8-3.4-1.1-.8-2.5-1.3-4-1.3-2.9 0-5.5 1.7-5.5 4.8 0 3.6 3.4 4.4 6.2 5 2.2.4 4.5.9 6.4 2.1 2.3 1.3 3.5 3.6 3.5 6.2 0 1.8-.6 3.1-1.2 4.4-1.3 2.6-5 4.1-8.2 4.1-3.4 0-6.1-1.2-7.9-4.1v3.4h-2.9v-8.1h2.9c.3 3.4 3.4 6 7.2 6 3.1 0 6.1-2.1 6.1-5.4 0-3.9-3.3-4.6-6.5-5.2-2.2-.5-4.4-.9-6.4-2.1-2.1-1.3-3.3-3.5-3.3-6 0-1.9.4-3.4 1.5-4.8 1.7-2.2 4.8-3.1 7.5-3.1 2.6 0 5 .9 6.4 3.1v-2.6h2.9v7.2H67zm96.1 17.7h4.7v3.3h-13.3v-3.3h5.1V85.8h-4.7v-3.3h8.3v35z" class="st1"/>
  <path d="M175.9 117.5h4.7v3.3h-13.1v-3.3h4.8V95.9h-4.7v-3.3h8.3v24.9zm0-29.5h-3.6v-5.5h3.6V88z" class="st1"/>
  <path d="M195.7 99.8c-.1-1.5-.8-2.6-1.8-3.4-1.1-.8-2.5-1.3-4-1.3-2.9 0-5.5 1.7-5.5 4.8 0 3.6 3.4 4.4 6.2 5 2.2.4 4.5.9 6.4 2.1 2.3 1.3 3.5 3.6 3.5 6.2 0 1.8-.6 3.1-1.2 4.4-1.3 2.6-5 4.1-8.2 4.1-3.4 0-6.1-1.2-7.9-4.1v3.4h-2.9v-8.1h2.9c.3 3.4 3.4 6 7.2 6 3.1 0 6.1-2.1 6.1-5.4 0-3.9-3.3-4.6-6.5-5.2-2.2-.5-4.4-.9-6.4-2.1-2.1-1.3-3.3-3.5-3.3-6 0-1.9.4-3.4 1.5-4.8 1.7-2.2 4.8-3.1 7.5-3.1 2.6 0 5 .9 6.4 3.1v-2.6h2.9v7.2h-2.9z" class="st1"/>
  <path d="M23 135.7l.7-.9c.5.5 1.2.9 2.1.9 1 0 1.3-.5 1.3-.9 0-1.4-3.9-.5-3.9-3 0-1.1 1-2 2.4-2 1 0 1.9.3 2.5.9l-.7.9c-.5-.5-1.2-.8-1.9-.8s-1.1.3-1.1.8c0 1.2 3.9.5 3.9 3 0 1.1-.8 2.1-2.6 2.1-1.2 0-2.1-.4-2.7-1zm9 .9V131h-2v-1h5.2v1h-2v5.6H32zm9.3 0l-.5-1.3h-3.1l-.5 1.3h-1.3l2.6-6.7H40l2.6 6.7h-1.3zm-2-5.5l-1.2 3.2h2.4l-1.2-3.2zm5.2 5.5V130h3.3c1.2 0 1.9.8 1.9 1.7 0 .8-.5 1.4-1.2 1.5.7.1 1.3.8 1.3 1.6 0 1-.7 1.8-1.9 1.8h-3.4zm3.9-4.8c0-.5-.3-.9-.9-.9h-1.9v1.7h1.9c.6.1.9-.3.9-.8zm.2 2.9c0-.5-.3-.9-1-.9h-1.9v1.9h1.9c.6-.1 1-.5 1-1zm3.4 1.9V130h1.2v5.6h2.9v1H52zm6.2 0V130h4.6v1h-3.4v1.7h3.3v1h-3.3v1.9h3.4v1h-4.6zm14.7 0c-.2-.1-.4-.3-.6-.6-.5.4-1.1.7-1.9.7-1.2 0-2.1-.6-2.1-1.9 0-1 .7-1.6 1.4-1.9-.3-.5-.5-1-.5-1.5 0-.9.8-1.6 1.8-1.6.9 0 1.6.5 1.6 1.4 0 1-.8 1.4-1.7 1.8.2.3.5.6.7.8.2.3.4.5.7.8.3-.5.5-1 .7-1.4l.8.4c-.2.5-.5 1.1-.9 1.7l1.3 1.3h-1.3zm-1.1-1.2c-.3-.4-.6-.7-.8-.9-.2-.3-.5-.6-.7-.9-.4.3-.8.6-.8 1.2 0 .7.5 1.1 1.2 1.1.4 0 .7-.2 1.1-.5zm-1.1-3c.6-.3 1.1-.6 1.1-1.2 0-.4-.3-.6-.7-.6-.4 0-.8.3-.8.8.1.3.2.7.4 1zm9 .9c0-2.1 1.5-3.4 3.5-3.4 1.3 0 2.2.7 2.7 1.5l-1 .5c-.3-.6-1-1-1.7-1-1.3 0-2.3 1-2.3 2.4s1 2.4 2.3 2.4c.7 0 1.4-.4 1.7-1l1 .5c-.5.8-1.3 1.5-2.7 1.5-2 0-3.5-1.4-3.5-3.4zm12 3.3l-1.5-2.5H89v2.5h-1.2V130h2.9c1.3 0 2.2.8 2.2 2.1 0 1.2-.8 1.8-1.6 2l1.6 2.6h-1.2zm.1-4.6c0-.6-.5-1-1.1-1h-1.6v2.1h1.6c.6 0 1.1-.4 1.1-1.1zm3.5 4.6V130h4.6v1h-3.4v1.7h3.3v1h-3.3v1.9h3.4v1h-4.6zm11.5 0l-.5-1.3h-3.1l-.5 1.3h-1.3l2.6-6.7h1.5l2.6 6.7h-1.3zm-2-5.5l-1.2 3.2h2.4l-1.2-3.2zm6.1 5.5V131h-2v-1h5.2v1h-2v5.6h-1.2zm5.3 0V130h1.2v6.7h-1.2zm5.6 0l-2.6-6.7h1.3l2 5.4 2-5.4h1.3l-2.6 6.7h-1.4zm5.9 0V130h4.6v1h-3.4v1.7h3.3v1h-3.3v1.9h3.4v1h-4.6zm10.2-.9l.7-.9c.5.5 1.2.9 2.1.9 1 0 1.3-.5 1.3-.9 0-1.4-3.9-.5-3.9-3 0-1.1 1-2 2.4-2 1 0 1.9.3 2.5.9l-.7.9c-.5-.5-1.2-.8-1.9-.8s-1.1.3-1.1.8c0 1.2 3.9.5 3.9 3 0 1.1-.8 2.1-2.6 2.1-1.3 0-2.1-.4-2.7-1zm7.1-2.4c0-2 1.4-3.4 3.4-3.4s3.4 1.5 3.4 3.4-1.4 3.4-3.4 3.4-3.4-1.4-3.4-3.4zm5.7 0c0-1.4-.9-2.4-2.2-2.4-1.3 0-2.2 1-2.2 2.4s.9 2.4 2.2 2.4c1.3 0 2.2-1 2.2-2.4zm3.3 3.3V130h1.2v5.6h2.9v1H154zm6-2.6v-4h1.2v4c0 1.1.6 1.7 1.7 1.7s1.7-.7 1.7-1.7v-4h1.2v4c0 1.6-.9 2.8-2.9 2.8-2-.1-2.9-1.2-2.9-2.8zm9.9 2.6V131h-2v-1h5.2v1h-2v5.6h-1.2zm5.3 0V130h1.2v6.7h-1.2zm3.4-3.3c0-2 1.4-3.4 3.4-3.4s3.4 1.5 3.4 3.4-1.4 3.4-3.4 3.4-3.4-1.4-3.4-3.4zm5.6 0c0-1.4-.9-2.4-2.2-2.4-1.3 0-2.2 1-2.2 2.4s.9 2.4 2.2 2.4c1.3 0 2.2-1 2.2-2.4zm8 3.3l-3.5-4.8v4.8h-1.2V130h1.2l3.4 4.6V130h1.2v6.7h-1.1zm3.3-.9l.7-.9c.5.5 1.2.9 2.1.9 1 0 1.3-.5 1.3-.9 0-1.4-3.9-.5-3.9-3 0-1.1 1-2 2.4-2 1 0 1.9.3 2.5.9l-.7.9c-.5-.5-1.2-.8-1.9-.8s-1.1.3-1.1.8c0 1.2 3.9.5 3.9 3 0 1.1-.8 2.1-2.6 2.1-1.2 0-2.1-.4-2.7-1z" class="st2"/>
</svg>
