<?xml version="1.0" encoding="utf-8"?>
<!-- Generator: Adobe Illustrator 23.0.2, SVG Export Plug-In . SVG Version: 6.00 Build 0)  -->
<svg version="1.1" id="Matthias-Talloen-Brand12-w-01"
	 xmlns="http://www.w3.org/2000/svg" xmlns:xlink="http://www.w3.org/1999/xlink" x="0px" y="0px" viewBox="0 0 186 38.2"
	 style="enable-background:new 0 0 186 38.2;" xml:space="preserve">
<style type="text/css">
	.st0{fill:#FFFFFF;}
</style>
<g id="Group_6" transform="translate(54.737 1.84)">
	<g id="Group_5">
		<path id="Path_17" class="st0" d="M15.5,16V8.4c0-1.9,0-3.9,0.1-5.8h0c-0.4,1.9-1,3.8-1.5,5.7L11.9,16H7.4L5.1,8.3
			C4.6,6.4,4.1,4.5,3.6,2.6h0c0.1,1.9,0.1,3.8,0.1,5.8V16H0.1V0.3h6.1l2,6.9c0.5,1.9,1,3.8,1.4,5.8h0c0.4-1.9,0.8-3.8,1.3-5.8l2-6.9
			h6.1V16H15.5z"/>
		<path id="Path_18" class="st0" d="M28,12.7L27,16h-4l5.3-15.7h5L38.6,16h-4l-1-3.3L28,12.7z M32.4,8.5c-0.6-1.9-1.1-3.8-1.6-5.7h0
			c-0.5,1.9-1,3.8-1.5,5.7l-0.3,1.1h3.8L32.4,8.5z"/>
		<path id="Path_19" class="st0" d="M48.2,3.6V16h-3.8V3.6h-4.8V0.3H53v3.2L48.2,3.6L48.2,3.6z"/>
		<path id="Path_20" class="st0" d="M64.8,3.6V16H61V3.6h-4.8V0.3h13.4v3.2L64.8,3.6L64.8,3.6z"/>
		<path id="Path_21" class="st0" d="M83.1,16V9.5h-5.8V16h-3.8V0.3h3.8v5.9h5.8V0.3h3.8V16H83.1z"/>
		<path id="Path_22" class="st0" d="M92.3,16V0.3h3.8V16H92.3z"/>
		<path id="Path_23" class="st0" d="M105,12.7l-1,3.3h-4l5.3-15.7h5l5.3,15.7h-4l-1-3.3L105,12.7z M109.4,8.5
			c-0.6-1.9-1.1-3.8-1.6-5.7h0c-0.5,1.9-1,3.8-1.5,5.7l-0.3,1.1h3.8L109.4,8.5z"/>
		<path id="Path_24" class="st0" d="M130.8,5.1h-4C127,4,126.1,3,125,2.9c-0.2,0-0.3,0-0.5,0c-1.3,0-2.1,0.6-2.1,1.5
			c0,1,0.8,1.4,3.1,1.9c3,0.7,5.7,1.6,5.7,5c0,3.1-2.5,5-6.4,5c-4.1,0-6.6-2-6.6-5.5h4c0,1.6,0.9,2.4,2.6,2.4c1.4,0,2.3-0.6,2.3-1.6
			c0-1.2-0.9-1.4-3-2c-3-0.8-5.7-1.5-5.7-4.9c0-2.9,2.4-4.8,6.1-4.8C128.6,0,130.8,1.8,130.8,5.1z"/>
		<path id="Path_25" class="st0" d="M8.6,23.4v12.4H4.8V23.4H0v-3.2h13.4v3.2H8.6z"/>
		<path id="Path_26" class="st0" d="M19.3,32.5l-1,3.3h-4l5.3-15.7h5L30,35.8h-4l-1-3.3L19.3,32.5L19.3,32.5z M23.8,28.3
			c-0.6-1.9-1.1-3.8-1.6-5.7h0c-0.5,1.9-1,3.8-1.5,5.7l-0.3,1.1h3.8L23.8,28.3z"/>
		<path id="Path_27" class="st0" d="M44.7,32.6v3.2H33.9V20.1h3.8v12.4L44.7,32.6L44.7,32.6z"/>
		<path id="Path_28" class="st0" d="M59.6,32.6v3.2H48.7V20.1h3.8v12.4L59.6,32.6L59.6,32.6z"/>
		<path id="Path_29" class="st0" d="M77.7,28c0,5-2.9,8.2-7.6,8.2c-4.7,0-7.6-3.1-7.6-8.2s2.9-8.2,7.6-8.2
			C74.8,19.8,77.7,22.9,77.7,28z M66.5,28c0,3.1,1.3,4.9,3.6,4.9c2.3,0,3.6-1.8,3.6-4.9s-1.3-4.9-3.6-4.9
			C67.9,23.1,66.5,24.9,66.5,28L66.5,28z"/>
		<path id="Path_30" class="st0" d="M86.1,23.3v3h6.8v3.1h-6.8v3.2h7.4v3.2H82.3V20.1h11.1v3.2L86.1,23.3L86.1,23.3z"/>
		<path id="Path_31" class="st0" d="M107.3,35.8l-2.7-6.2c-0.9-2-1.8-4.2-2.6-6.3h0c0.1,2.2,0.2,4.4,0.2,6.6v5.9h-3.7V20.1h5.5
			l2.8,6.2c0.9,2,1.8,4.2,2.6,6.3h0c-0.1-2.2-0.2-4.4-0.2-6.6v-5.8h3.7v15.7L107.3,35.8L107.3,35.8z"/>
	</g>
</g>
<g id="Group_7">
	<path id="Path_32" class="st0" d="M18.6,0l-5.8,5h5.8v3.7H8.5l-4.2,3.6h14.3v3.7H0v3.6h18.6v3.7H0v3.6h18.6v3.7H0v3.6h18.6v3.7
		h18.6V16L18.6,0z"/>
</g>
</svg>
